<svg width="993" height="305" viewBox="0 0 993 305" fill="none" xmlns="http://www.w3.org/2000/svg">
<path d="M302.74 224.44C302.74 217.92 308.03 212.63 314.55 212.63H339.62C361.16 212.63 374.19 225.27 374.19 243.84V244.09C374.19 265.12 357.93 275.81 337.69 275.81H322.61V302.9H302.75V224.43H302.74V224.44ZM338.33 258.15C348.26 258.15 354.07 252.22 354.07 244.47V244.22C354.07 235.33 347.88 230.54 337.95 230.54H322.6V258.15H338.34H338.33Z" fill="#37B6D6"/>
<path d="M388.89 224.42C388.89 217.9 394.17 212.63 400.68 212.63H430.15C441.63 212.63 450.41 215.73 456.47 221.79C461.63 226.95 464.2 233.78 464.2 242.43V242.68C464.2 257.25 456.33 266.4 444.85 270.67L466.9 302.91H443.68L424.33 274.02H408.73V302.91H388.87V224.44H388.88L388.89 224.42ZM428.87 256.47C438.68 256.47 444.09 251.45 444.09 243.7V243.45C444.09 234.81 438.28 230.56 428.49 230.56H408.75V256.48H428.87V256.47Z" fill="#37B6D6"/>
<path d="M478.14 258.01V257.76C478.14 232.1 498.38 211.07 526.24 211.07C554.1 211.07 574.09 231.83 574.09 257.49V257.74C574.09 283.4 553.83 304.43 525.99 304.43C498.15 304.43 478.14 283.67 478.14 258.01ZM553.32 258.01V257.76C553.32 242.29 541.97 229.38 525.98 229.38C509.99 229.38 498.89 242.02 498.89 257.49V257.74C498.89 273.21 510.24 286.12 526.23 286.12C542.22 286.12 553.32 273.48 553.32 258.01Z" fill="#37B6D6"/>
<path d="M676.05 122.69V45.6396H638.52V121C638.52 136.23 627.57 150.15 612.42 151.69C594.99 153.47 580.23 139.77 580.23 122.7V45.6496H542.7V122.7C542.7 156.74 568.38 184.93 601.37 188.88C609.35 189.83 616.16 195.52 618.49 203.22C620.16 208.7 620.88 216.03 619.18 225.6C618.15 231.3 624.69 235.14 629.05 231.3C648.59 214.15 673.13 185.58 676.02 122.68V122.71V122.69H676.05Z" fill="#37B6D6"/>
<path d="M399.57 189.37H437.1V112.32C437.1 96.2496 450.17 83.1696 466.25 83.1696C482.33 83.1696 495.38 96.2396 495.38 112.32V189.37H532.91V112.32C532.91 75.5496 503 45.6396 466.26 45.6396C429.52 45.6396 399.58 75.5496 399.58 112.32V189.37H399.57Z" fill="#37B6D6"/>
<path d="M813.54 232.84C774.71 232.84 743.13 201.27 743.13 162.46C743.13 123.65 774.7 92.0498 813.54 92.0498C852.38 92.0498 883.95 123.63 883.95 162.46C883.95 178.14 886.32 228.69 874.91 232.08C862.51 235.78 860.51 215.54 846.42 224.69C837.11 230.72 825.4 232.84 813.54 232.84ZM813.54 129.59C795.42 129.59 780.66 144.32 780.66 162.47C780.66 180.62 795.39 195.32 813.54 195.32C831.69 195.32 846.42 180.59 846.42 162.47C846.42 144.35 831.69 129.59 813.54 129.59Z" fill="#37B6D6"/>
<path d="M992.99 119.55C965.33 87.0296 926.45 95.3596 914.42 107.1C914.42 107.1 910.22 87.5296 899.63 89.9296C896.37 90.6496 895.38 94.4596 894.74 101.22C893.41 115.75 894.27 147.17 894.27 154.83V231.88H931.8V154.83C931.8 138.76 947.56 121.28 967.88 143.63L993.01 119.59V119.56L992.99 119.55Z" fill="#37B6D6"/>
<path d="M733.11 45.6504H695.58V232.85H733.11V45.6504Z" fill="#37B6D6"/>
<path d="M437.1 112.33C437.1 75.5604 407.19 45.6504 370.42 45.6504C352.36 45.6504 335.93 52.8804 323.92 64.6004C323.92 64.6004 319.72 45.0304 309.13 47.4304C305.87 48.1504 304.88 51.9604 304.24 58.7204C302.91 73.2504 303.77 104.67 303.77 112.33V189.38H341.3V112.33C341.3 96.2604 354.37 83.1804 370.43 83.1804C386.49 83.1804 399.58 96.2504 399.58 112.33V189.38H437.11V112.33H437.1Z" fill="#37B6D6"/>
<path d="M582.09 140.35C577.11 160.12 565.88 167.87 565.88 167.87C639.5 195.24 638.09 123.6 638.09 123.6C638.09 123.6 636.09 149.56 610.22 151.89C590.6 153.67 582.62 134.91 582.62 134.91L582.09 140.36V140.35Z" fill="url(#paint0_linear_2230_162)"/>
<path d="M439.09 94.7296C434.11 74.9596 422.88 67.2096 422.88 67.2096C496.5 39.8396 495.04 111.46 495.04 111.46C495.04 111.46 493.12 85.5496 467.22 83.1996C447.6 81.4196 439.62 100.19 439.62 100.19L439.09 94.7396V94.7296Z" fill="url(#paint1_linear_2230_162)"/>
<path d="M343.23 94.7302C338.25 74.9602 327.02 67.2102 327.02 67.2102C400.64 39.8402 399.23 111.48 399.23 111.48C399.23 111.48 397.23 85.5202 371.36 83.1902C351.74 81.4102 343.76 100.18 343.76 100.18L343.23 94.7302Z" fill="url(#paint2_linear_2230_162)"/>
<path d="M241.04 107.13H195.82C187.72 107.13 181.13 113.72 181.13 121.82V299.01H255.83V121.91C255.83 113.75 249.2 107.13 241.04 107.13ZM211.77 199.3C211.77 202.53 209.15 205.16 205.91 205.16H192.73C189.5 205.16 186.87 202.53 186.87 199.3V184.2C186.87 180.97 189.5 178.34 192.73 178.34H205.91C209.15 178.34 211.77 180.97 211.77 184.2V199.3ZM250.08 275.91C250.08 279.15 247.46 281.77 244.22 281.77H231.04C227.81 281.77 225.18 279.15 225.18 275.91V260.82C225.18 257.58 227.81 254.96 231.04 254.96H244.22C247.46 254.96 250.08 257.58 250.08 260.82V275.91Z" fill="#37B6D6"/>
<path d="M214.97 88.8398H222.63C230.79 88.8398 237.42 95.4699 237.42 103.63V107.48H200.28V103.53C200.28 95.4298 206.87 88.8398 214.97 88.8398Z" fill="#37B6D6"/>
<path d="M149.94 0.209961H105.04C96.8798 0.209961 90.2598 6.83997 90.2598 15V299.01H164.96V15.23C164.96 6.92998 158.23 0.209961 149.94 0.209961ZM120.88 275.91C120.88 279.15 118.26 281.77 115.02 281.77H101.84C98.6098 281.77 95.9798 279.15 95.9798 275.91V260.82C95.9798 257.58 98.6098 254.96 101.84 254.96H115.02C118.26 254.96 120.88 257.58 120.88 260.82V275.91ZM120.88 118.85C120.88 122.09 118.26 124.71 115.02 124.71H101.84C98.6098 124.71 95.9798 122.09 95.9798 118.85V103.76C95.9798 100.52 98.6098 97.9 101.84 97.9H115.02C118.26 97.9 120.88 100.52 120.88 103.76V118.85ZM159.19 199.3C159.19 202.53 156.57 205.16 153.33 205.16H140.15C136.91 205.16 134.29 202.53 134.29 199.3V184.2C134.29 180.97 136.91 178.34 140.15 178.34H153.33C156.57 178.34 159.19 180.97 159.19 184.2V199.3ZM159.19 38.4C159.19 41.64 156.57 44.26 153.33 44.26H140.15C136.91 44.26 134.29 41.64 134.29 38.4V23.31C134.29 20.07 136.91 17.45 140.15 17.45H153.33C156.57 17.45 159.19 20.07 159.19 23.31V38.4Z" fill="#37B6D6"/>
<path d="M75.0598 236.76C74.1298 235.05 72.3198 233.89 70.2398 233.89H6.25977C4.22977 233.89 2.45977 235.05 1.59977 236.75C1.21977 237.46 1.00977 238.28 1.00977 239.14V299.01H75.7098V239.37C75.7098 238.43 75.4698 237.54 75.0598 236.76ZM48.8798 291.23C48.8798 294.47 46.2598 297.1 43.0198 297.1H33.6698C30.4298 297.1 27.8098 294.47 27.8098 291.23V270.4C27.8098 267.16 30.4298 264.53 33.6698 264.53H43.0198C46.2598 264.53 48.8798 267.16 48.8798 270.4V291.23Z" fill="#37B6D6"/>
<path d="M40.8703 209.26L73.9503 229.24C78.2203 231.83 76.3803 238.38 71.4003 238.38H5.27032C0.290315 238.38 -1.54968 231.83 2.72032 229.24L35.8003 209.26C37.3703 208.32 39.3203 208.32 40.8903 209.26H40.8703Z" fill="#37B6D6"/>
<defs>
<linearGradient id="paint0_linear_2230_162" x1="581.59" y1="139.99" x2="658.67" y2="162.36" gradientUnits="userSpaceOnUse">
<stop offset="0.17" stop-color="#30B1DD" stop-opacity="0"/>
<stop offset="0.35" stop-color="#25657B" stop-opacity="0.25"/>
<stop offset="0.66" stop-color="#1A1A1A" stop-opacity="0.5"/>
</linearGradient>
<linearGradient id="paint1_linear_2230_162" x1="438.55" y1="95.0796" x2="515.6" y2="72.7096" gradientUnits="userSpaceOnUse">
<stop offset="0.17" stop-color="#30B1DD" stop-opacity="0"/>
<stop offset="0.35" stop-color="#25657B" stop-opacity="0.25"/>
<stop offset="0.66" stop-color="#1A1A1A" stop-opacity="0.5"/>
</linearGradient>
<linearGradient id="paint2_linear_2230_162" x1="342.72" y1="95.0902" x2="419.82" y2="72.7202" gradientUnits="userSpaceOnUse">
<stop offset="0.17" stop-color="#30B1DD" stop-opacity="0"/>
<stop offset="0.35" stop-color="#25657B" stop-opacity="0.25"/>
<stop offset="0.66" stop-color="#1A1A1A" stop-opacity="0.5"/>
</linearGradient>
</defs>
</svg>
