<svg width="296" height="173" viewBox="0 0 296 173" fill="none" xmlns="http://www.w3.org/2000/svg">
<g clip-path="url(#clip0_6_190)">
<path d="M175.029 10.3525H176.689C178.456 10.3525 179.891 11.7878 179.891 13.5549V14.3887H171.848V13.5342C171.848 11.7795 173.275 10.3525 175.029 10.3525Z" fill="white"/>
<path d="M180.675 14.3099H170.881C169.127 14.3099 167.7 15.7369 167.7 17.4916V55.8661H183.877V17.5123C183.877 15.7452 182.442 14.3099 180.675 14.3099ZM174.337 34.275C174.337 34.976 173.768 35.5443 173.067 35.5443H170.213C169.512 35.5443 168.944 34.976 168.944 34.275V31.0062C168.944 30.3052 169.512 29.7369 170.213 29.7369H173.067C173.768 29.7369 174.337 30.3052 174.337 31.0062V34.275ZM182.633 50.8676C182.633 51.5686 182.065 52.1369 181.364 52.1369H178.51C177.809 52.1369 177.24 51.5686 177.24 50.8676V47.5988C177.24 46.8978 177.809 46.3295 178.51 46.3295H181.364C182.065 46.3295 182.633 46.8978 182.633 47.5988V50.8676Z" fill="white"/>
<path d="M0.197328 138.916C0.197328 136.125 2.46222 133.86 5.25392 133.86H15.9893C25.2148 133.86 30.7941 139.273 30.7941 147.225V147.333C30.7941 156.338 23.8335 160.918 15.1638 160.918H8.70518V172.516H0.201474V138.908L0.193176 138.916H0.197328ZM15.4418 153.352C19.6936 153.352 22.1825 150.813 22.1825 147.495V147.387C22.1825 143.579 19.5318 141.53 15.28 141.53H8.70518V153.352H15.4459H15.4418Z" fill="white"/>
<path d="M37.0909 138.912C37.0909 136.12 39.3517 133.86 42.1434 133.86H54.7662C59.6859 133.86 63.44 135.187 66.0367 137.78C68.2435 139.986 69.3511 142.915 69.3511 146.619V146.727C69.3511 152.966 65.9828 156.886 61.0631 158.715L70.5043 172.524H60.5612L52.2732 160.151H45.5905V172.524H37.0868V138.916L37.0951 138.908L37.0909 138.912ZM54.2145 152.634C58.4166 152.634 60.7312 150.481 60.7312 147.163V147.055C60.7312 143.355 58.2424 141.534 54.0486 141.534H45.5946V152.634H54.2103H54.2145Z" fill="white"/>
<path d="M75.312 153.298V153.19C75.312 142.197 83.9816 133.196 95.9117 133.196C107.842 133.196 116.404 142.085 116.404 153.078V153.186C116.404 164.178 107.73 173.18 95.8039 173.18C83.8779 173.18 75.312 164.29 75.312 153.298ZM107.51 153.298V153.19C107.51 146.565 102.648 141.036 95.8039 141.036C88.9594 141.036 84.2056 146.449 84.2056 153.074V153.182C84.2056 159.806 89.0673 165.336 95.9117 165.336C102.756 165.336 107.51 159.922 107.51 153.298Z" fill="white"/>
<path d="M160.067 95.344V62.3496H143.997V94.6222C143.997 101.143 139.305 107.108 132.818 107.764C125.355 108.527 119.033 102.657 119.033 95.3481V62.3537H102.964V95.3481C102.964 109.929 113.96 122 128.089 123.692C131.507 124.099 134.423 126.538 135.423 129.832C136.14 132.175 136.443 135.32 135.721 139.414C135.282 141.857 138.078 143.496 139.948 141.857C148.315 134.511 158.827 122.278 160.067 95.3398V95.3523V95.344Z" fill="white"/>
<path d="M41.6664 123.9H57.7363V90.9055C57.7363 84.0237 63.3322 78.4195 70.2222 78.4195C77.1123 78.4195 82.6957 84.0154 82.6957 90.9055V123.9H98.7656V90.9055C98.7656 75.1591 85.9562 62.3496 70.2222 62.3496C54.4883 62.3496 41.6664 75.1591 41.6664 90.9055V123.9Z" fill="white"/>
<path d="M218.95 142.513C202.324 142.513 188.797 128.994 188.797 112.372C188.797 95.7505 202.316 82.2192 218.95 82.2192C235.584 82.2192 249.103 95.7422 249.103 112.372C249.103 119.088 250.115 140.737 245.233 142.189C239.923 143.774 239.068 135.108 233.033 139.024C229.046 141.608 224.031 142.513 218.95 142.513ZM218.95 98.2975C211.189 98.2975 204.867 104.607 204.867 112.38C204.867 120.154 211.176 126.451 218.95 126.451C226.724 126.451 233.033 120.142 233.033 112.38C233.033 104.619 226.724 98.2975 218.95 98.2975Z" fill="white"/>
<path d="M295.799 94C283.956 80.0747 267.301 83.6421 262.149 88.6697C262.149 88.6697 260.353 80.2904 255.815 81.315C254.421 81.6261 253.993 83.2522 253.72 86.1476C253.151 92.3698 253.521 105.826 253.521 109.108V142.102H269.591V109.108C269.591 102.226 276.34 94.7425 285.042 104.312L295.803 94.0166V94.0042H295.799V94Z" fill="white"/>
<path d="M184.504 62.3496H168.434V142.517H184.504V62.3496Z" fill="white"/>
<path d="M57.7363 90.9055C57.7363 75.1591 44.9268 62.3496 29.1805 62.3496C21.4442 62.3496 14.4089 65.4441 9.2652 70.4675C9.2652 70.4675 7.46905 62.0883 2.93098 63.1129C1.5372 63.424 1.10994 65.05 0.836162 67.9455C0.267865 74.1677 0.637052 87.6243 0.637052 90.9055V123.9H16.707V90.9055C16.707 84.0237 22.3028 78.4195 29.1805 78.4195C36.0581 78.4195 41.6664 84.0154 41.6664 90.9055V123.9H57.7363V90.9055Z" fill="white"/>
<path d="M118.61 42.3929C118.411 42.0195 118.017 41.7665 117.565 41.7665H103.71C103.271 41.7665 102.893 42.0154 102.702 42.3804C102.619 42.538 102.574 42.7164 102.574 42.9031V55.8702H118.751V42.9529C118.751 42.7496 118.702 42.5588 118.61 42.3929ZM112.944 54.186C112.944 54.8871 112.376 55.4554 111.675 55.4554H109.65C108.949 55.4554 108.381 54.8871 108.381 54.186V49.6729C108.381 48.9718 108.949 48.4035 109.65 48.4035H111.675C112.376 48.4035 112.944 48.9718 112.944 49.6729V54.186Z" fill="white"/>
<path d="M156.151 -8.84094H146.428C144.661 -8.84094 143.225 -7.40568 143.225 -5.63857V55.8702H159.403V-5.58878C159.403 -7.38493 157.947 -8.84094 156.151 -8.84094ZM149.863 50.8675C149.863 51.5685 149.294 52.1368 148.593 52.1368H145.739C145.038 52.1368 144.47 51.5685 144.47 50.8675V47.5988C144.47 46.8977 145.038 46.3294 145.739 46.3294H148.593C149.294 46.3294 149.863 46.8977 149.863 47.5988V50.8675ZM149.863 16.8527C149.863 17.5537 149.294 18.122 148.593 18.122H145.739C145.038 18.122 144.47 17.5537 144.47 16.8527V13.584C144.47 12.8829 145.038 12.3146 145.739 12.3146H148.593C149.294 12.3146 149.863 12.8829 149.863 13.584V16.8527ZM158.159 34.2749C158.159 34.9759 157.591 35.5442 156.889 35.5442H154.036C153.335 35.5442 152.766 34.9759 152.766 34.2749V31.0062C152.766 30.3051 153.335 29.7368 154.036 29.7368H156.889C157.591 29.7368 158.159 30.3051 158.159 31.0062V34.2749ZM158.159 -0.569533C158.159 0.131503 157.591 0.699799 156.889 0.699799H154.036C153.335 0.699799 152.766 0.131503 152.766 -0.569533V-3.83826C152.766 -4.5393 153.335 -5.10761 154.036 -5.10761H156.889C157.591 -5.10761 158.159 -4.5393 158.159 -3.83826V-0.569533Z" fill="white"/>
<path d="M111.21 36.4278L118.374 40.7544C119.299 41.3144 118.901 42.733 117.822 42.733H103.499C102.42 42.733 102.022 41.3144 102.947 40.7544L110.111 36.4278C110.451 36.2246 110.874 36.2246 111.214 36.4278H111.21Z" fill="white"/>
<path d="M119.83 102.906C117.698 111.372 112.89 114.691 112.89 114.691C144.42 126.414 143.815 95.7297 143.815 95.7297C143.815 95.7297 142.956 106.847 131.876 107.846C123.476 108.61 120.058 100.575 120.058 100.575L119.83 102.906Z" fill="url(#paint0_linear_6_190)"/>
<path d="M59.6113 81.0661C57.5331 72.8154 52.8456 69.5757 52.8456 69.5757C83.5834 58.1476 82.9695 88.0474 82.9695 88.0474C82.9695 88.0474 82.1689 77.2332 71.3547 76.2459C63.1662 75.5034 59.8311 83.3393 59.8311 83.3393L59.6113 81.0661Z" fill="url(#paint1_linear_6_190)"/>
<path d="M19.5899 81.0661C17.5117 72.8154 12.8243 69.5757 12.8243 69.5757C43.5621 58.1475 42.9689 88.0598 42.9689 88.0598C42.9689 88.0598 42.1309 77.2249 31.3333 76.2459C23.1449 75.5034 19.8098 83.3393 19.8098 83.3393L19.5899 81.0661Z" fill="url(#paint2_linear_6_190)"/>
</g>
<defs>
<linearGradient id="paint0_linear_6_190" x1="119.614" y1="102.753" x2="152.621" y2="112.331" gradientUnits="userSpaceOnUse">
<stop offset="0.17" stop-color="#30B1DD" stop-opacity="0"/>
<stop offset="0.35" stop-color="#25657B" stop-opacity="0.25"/>
<stop offset="0.66" stop-color="#1A1A1A" stop-opacity="0.5"/>
</linearGradient>
<linearGradient id="paint1_linear_6_190" x1="59.3873" y1="81.2113" x2="91.552" y2="71.8738" gradientUnits="userSpaceOnUse">
<stop offset="0.17" stop-color="#30B1DD" stop-opacity="0"/>
<stop offset="0.35" stop-color="#25657B" stop-opacity="0.25"/>
<stop offset="0.66" stop-color="#1A1A1A" stop-opacity="0.5"/>
</linearGradient>
<linearGradient id="paint2_linear_6_190" x1="19.3784" y1="81.2154" x2="51.5638" y2="71.8779" gradientUnits="userSpaceOnUse">
<stop offset="0.17" stop-color="#30B1DD" stop-opacity="0"/>
<stop offset="0.35" stop-color="#25657B" stop-opacity="0.25"/>
<stop offset="0.66" stop-color="#1A1A1A" stop-opacity="0.5"/>
</linearGradient>
<clipPath id="clip0_6_190">
<rect width="296" height="173" fill="white"/>
</clipPath>
</defs>
</svg>
