<svg width="7844" height="2409" viewBox="0 0 7844 2409" fill="none" xmlns="http://www.w3.org/2000/svg">
<g clip-path="url(#clip0_3053_5602)">
<path d="M2391.15 1772.71C2391.15 1721.21 2432.93 1679.43 2484.43 1679.43H2682.44C2852.57 1679.43 2955.49 1779.26 2955.49 1925.94V1927.91C2955.49 2094.01 2827.06 2178.45 2667.2 2178.45H2548.09V2392.41H2391.23V1772.63H2391.15V1772.71ZM2672.25 2038.96C2750.68 2038.96 2796.57 1992.12 2796.57 1930.91V1928.94C2796.57 1858.72 2747.68 1820.89 2669.25 1820.89H2548.01V2038.96H2672.33H2672.25Z" fill="white"/>
<path d="M3071.59 1772.55C3071.59 1721.05 3113.3 1679.43 3164.72 1679.43H3397.48C3488.15 1679.43 3557.5 1703.91 3605.37 1751.78C3646.12 1792.53 3666.42 1846.48 3666.42 1914.8V1916.77C3666.42 2031.85 3604.26 2104.12 3513.59 2137.85L3687.75 2392.49H3504.35L3351.51 2164.31H3228.3V2392.49H3071.44V1772.71H3071.52L3071.59 1772.55ZM3387.37 2025.69C3464.85 2025.69 3507.58 1986.04 3507.58 1924.83V1922.86C3507.58 1854.61 3461.69 1821.05 3384.37 1821.05H3228.46V2025.77H3387.37V2025.69Z" fill="white"/>
<path d="M3776.52 2037.86V2035.88C3776.52 1833.21 3936.38 1667.11 4156.43 1667.11C4376.48 1667.11 4534.37 1831.08 4534.37 2033.75V2035.73C4534.37 2238.4 4374.35 2404.5 4154.46 2404.5C3934.57 2404.5 3776.52 2240.53 3776.52 2037.86ZM4370.32 2037.86V2035.88C4370.32 1913.7 4280.67 1811.73 4154.38 1811.73C4028.08 1811.73 3940.41 1911.56 3940.41 2033.75V2035.73C3940.41 2157.91 4030.06 2259.88 4156.35 2259.88C4282.65 2259.88 4370.32 2160.05 4370.32 2037.86Z" fill="white"/>
<path d="M5339.69 969.05V360.479H5043.26V955.702C5043.26 1075.99 4956.78 1185.94 4837.11 1198.1C4699.45 1212.16 4582.87 1103.95 4582.87 969.129V360.558H4286.44V969.129C4286.44 1237.99 4489.27 1460.64 4749.84 1491.84C4812.87 1499.35 4866.65 1544.29 4885.06 1605.11C4898.25 1648.39 4903.94 1706.28 4890.51 1781.87C4882.37 1826.89 4934.03 1857.22 4968.46 1826.89C5122.8 1691.43 5316.62 1465.78 5339.45 968.971V969.208V969.05H5339.69Z" fill="white"/>
<path d="M3155.95 1495.71H3452.38V887.144C3452.38 760.215 3555.61 656.904 3682.61 656.904C3809.62 656.904 3912.69 760.136 3912.69 887.144V1495.71H4209.12V887.144C4209.12 596.719 3972.88 360.479 3682.69 360.479C3392.51 360.479 3156.03 596.719 3156.03 887.144V1495.71H3155.95Z" fill="white"/>
<path d="M6425.63 1839.05C6118.94 1839.05 5869.51 1589.7 5869.51 1283.17C5869.51 976.633 6118.86 727.043 6425.63 727.043C6732.4 727.043 6981.76 976.475 6981.76 1283.17C6981.76 1407.01 7000.47 1806.28 6910.35 1833.05C6812.41 1862.28 6796.62 1702.41 6685.33 1774.68C6611.8 1822.31 6519.31 1839.05 6425.63 1839.05ZM6425.63 1023.55C6282.51 1023.55 6165.93 1139.89 6165.93 1283.25C6165.93 1426.6 6282.28 1542.71 6425.63 1542.71C6568.99 1542.71 6685.33 1426.37 6685.33 1283.25C6685.33 1140.13 6568.99 1023.55 6425.63 1023.55Z" fill="white"/>
<path d="M7842.99 944.249C7624.52 687.391 7317.43 753.185 7222.42 845.915C7222.42 845.915 7189.24 691.341 7105.6 710.297C7079.85 715.983 7072.03 746.076 7066.98 799.472C7056.47 914.235 7063.26 1162.4 7063.26 1222.9V1831.47H7359.69V1222.9C7359.69 1095.98 7484.17 957.913 7644.66 1134.44L7843.15 944.565V944.328L7842.99 944.249Z" fill="white"/>
<path d="M5790.37 360.562H5493.94V1839.13H5790.37V360.562Z" fill="white"/>
<path d="M3452.37 887.222C3452.37 596.802 3216.13 360.562 2925.71 360.562C2783.06 360.562 2653.29 417.668 2558.43 510.236C2558.43 510.236 2525.26 355.666 2441.62 374.622C2415.87 380.308 2408.05 410.401 2402.99 463.794C2392.49 578.557 2399.28 826.721 2399.28 887.222V1495.79H2695.71V887.222C2695.71 760.299 2798.94 656.988 2925.79 656.988C3052.63 656.988 3156.02 760.22 3156.02 887.222V1495.79H3452.45V887.222H3452.37Z" fill="white"/>
<path d="M4597.56 1108.53C4558.22 1264.68 4469.52 1325.89 4469.52 1325.89C5051 1542.07 5039.86 976.234 5039.86 976.234C5039.86 976.234 5024.07 1181.28 4819.74 1199.68C4664.77 1213.74 4601.74 1065.56 4601.74 1065.56L4597.56 1108.61V1108.53Z" fill="url(#paint0_linear_3053_5602)"/>
<path d="M3468.09 748.209C3428.76 592.058 3340.06 530.846 3340.06 530.846C3921.53 314.668 3910 880.351 3910 880.351C3910 880.351 3894.84 675.702 3690.27 657.141C3535.31 643.081 3472.28 791.337 3472.28 791.337L3468.09 748.288V748.209Z" fill="url(#paint1_linear_3053_5602)"/>
<path d="M2710.95 748.214C2671.62 592.063 2582.92 530.851 2582.92 530.851C3164.4 314.673 3153.26 880.51 3153.26 880.51C3153.26 880.51 3137.46 675.47 2933.13 657.067C2778.17 643.008 2715.14 791.258 2715.14 791.258L2710.95 748.214Z" fill="url(#paint2_linear_3053_5602)"/>
<path d="M1903.82 846.15H1546.66C1482.68 846.15 1430.63 898.201 1430.63 962.177V2361.69H2020.64V962.888C2020.64 898.438 1968.27 846.15 1903.82 846.15ZM1672.63 1574.14C1672.63 1599.65 1651.94 1620.43 1626.35 1620.43H1522.25C1496.74 1620.43 1475.97 1599.65 1475.97 1574.14V1454.88C1475.97 1429.37 1496.74 1408.59 1522.25 1408.59H1626.35C1651.94 1408.59 1672.63 1429.37 1672.63 1454.88V1574.14ZM1975.22 2179.24C1975.22 2204.83 1954.53 2225.52 1928.94 2225.52H1824.84C1799.32 2225.52 1778.55 2204.83 1778.55 2179.24V2060.05C1778.55 2034.46 1799.32 2013.77 1824.84 2013.77H1928.94C1954.53 2013.77 1975.22 2034.46 1975.22 2060.05V2179.24Z" fill="white"/>
<path d="M1697.91 701.689H1758.41C1822.86 701.689 1875.23 754.056 1875.23 818.508V848.917H1581.89V817.718C1581.89 753.74 1633.94 701.689 1697.91 701.689Z" fill="white"/>
<path d="M1184.28 1.6582H829.644C765.191 1.6582 712.904 54.0244 712.904 118.475V2361.69H1302.91V120.292C1302.91 54.7353 1249.76 1.6582 1184.28 1.6582ZM954.754 2179.24C954.754 2204.83 934.06 2225.52 908.469 2225.52H804.369C778.856 2225.52 758.083 2204.83 758.083 2179.24V2060.05C758.083 2034.46 778.856 2013.77 804.369 2013.77H908.469C934.06 2013.77 954.754 2034.46 954.754 2060.05V2179.24ZM954.754 938.72C954.754 964.311 934.06 985.004 908.469 985.004H804.369C778.856 985.004 758.083 964.311 758.083 938.72V819.534C758.083 793.943 778.856 773.249 804.369 773.249H908.469C934.06 773.249 954.754 793.943 954.754 819.534V938.72ZM1257.34 1574.14C1257.34 1599.65 1236.65 1620.43 1211.06 1620.43H1106.96C1081.36 1620.43 1060.67 1599.65 1060.67 1574.14V1454.88C1060.67 1429.37 1081.36 1408.59 1106.96 1408.59H1211.06C1236.65 1408.59 1257.34 1429.37 1257.34 1454.88V1574.14ZM1257.34 303.297C1257.34 328.888 1236.65 349.581 1211.06 349.581H1106.96C1081.36 349.581 1060.67 328.888 1060.67 303.297V184.111C1060.67 158.52 1081.36 137.826 1106.96 137.826H1211.06C1236.65 137.826 1257.34 158.52 1257.34 184.111V303.297Z" fill="white"/>
<path d="M592.849 1870.01C585.504 1856.51 571.208 1847.35 554.779 1847.35H49.442C33.4083 1847.35 19.4282 1856.51 12.6356 1869.94C9.63424 1875.54 7.97559 1882.02 7.97559 1888.81V2361.69H597.983V1890.63C597.983 1883.2 596.088 1876.17 592.849 1870.01ZM386.07 2300.24C386.07 2325.83 365.377 2346.6 339.786 2346.6H265.936C240.346 2346.6 219.652 2325.83 219.652 2300.24V2135.71C219.652 2110.12 240.346 2089.35 265.936 2089.35H339.786C365.377 2089.35 386.07 2110.12 386.07 2135.71V2300.24Z" fill="white"/>
<path d="M322.808 1652.81L584.086 1810.62C617.812 1831.07 603.279 1882.81 563.945 1882.81H41.6268C2.29296 1882.81 -12.24 1831.07 21.486 1810.62L282.764 1652.81C295.164 1645.38 310.566 1645.38 322.966 1652.81H322.808Z" fill="white"/>
</g>
<defs>
<linearGradient id="paint0_linear_3053_5602" x1="4593.61" y1="1105.69" x2="5202.41" y2="1282.37" gradientUnits="userSpaceOnUse">
<stop offset="0.17" stop-color="#30B1DD" stop-opacity="0"/>
<stop offset="0.35" stop-color="#25657B" stop-opacity="0.25"/>
<stop offset="0.66" stop-color="#1A1A1A" stop-opacity="0.5"/>
</linearGradient>
<linearGradient id="paint1_linear_3053_5602" x1="3463.82" y1="750.973" x2="4072.39" y2="574.287" gradientUnits="userSpaceOnUse">
<stop offset="0.17" stop-color="#30B1DD" stop-opacity="0"/>
<stop offset="0.35" stop-color="#25657B" stop-opacity="0.25"/>
<stop offset="0.66" stop-color="#1A1A1A" stop-opacity="0.5"/>
</linearGradient>
<linearGradient id="paint2_linear_3053_5602" x1="2706.92" y1="751.057" x2="3315.89" y2="574.371" gradientUnits="userSpaceOnUse">
<stop offset="0.17" stop-color="#30B1DD" stop-opacity="0"/>
<stop offset="0.35" stop-color="#25657B" stop-opacity="0.25"/>
<stop offset="0.66" stop-color="#1A1A1A" stop-opacity="0.5"/>
</linearGradient>
<clipPath id="clip0_3053_5602">
<rect width="7843.07" height="2409" fill="white"/>
</clipPath>
</defs>
</svg>
