<svg width="4162" height="1174" viewBox="0 0 4162 1174" fill="none" xmlns="http://www.w3.org/2000/svg">
<path d="M3402.44 484V120.364H3559.4C3586.39 120.364 3610 125.69 3630.24 136.344C3650.48 146.997 3666.23 161.971 3677.47 181.266C3688.72 200.56 3694.34 223.11 3694.34 248.915C3694.34 274.956 3688.54 297.506 3676.94 316.564C3665.46 335.622 3649.3 350.3 3628.47 360.598C3607.75 370.896 3583.55 376.045 3555.85 376.045H3462.1V299.341H3535.96C3547.56 299.341 3557.44 297.329 3565.61 293.304C3573.9 289.161 3580.23 283.302 3584.61 275.726C3589.11 268.15 3591.36 259.213 3591.36 248.915C3591.36 238.498 3589.11 229.62 3584.61 222.281C3580.23 214.824 3573.9 209.142 3565.61 205.236C3557.44 201.211 3547.56 199.199 3535.96 199.199H3501.16V484H3402.44ZM3701.98 484V211.273H3797.15V263.119H3799.99C3804.97 243.943 3812.84 229.916 3823.61 221.038C3834.5 212.161 3847.22 207.722 3861.78 207.722C3866.05 207.722 3870.25 208.077 3874.39 208.787C3878.65 209.379 3882.74 210.267 3886.64 211.45V295.08C3881.79 293.422 3875.81 292.179 3868.71 291.351C3861.61 290.522 3855.51 290.108 3850.42 290.108C3840.83 290.108 3832.19 292.298 3824.5 296.678C3816.92 300.939 3810.94 306.976 3806.56 314.788C3802.18 322.482 3799.99 331.538 3799.99 341.955V484H3701.98ZM4004.55 488.972C3974.95 488.972 3949.62 483.112 3928.55 471.393C3907.48 459.556 3891.32 443.103 3880.08 422.033C3868.83 400.844 3863.21 376.282 3863.21 348.347C3863.21 320.411 3868.83 295.908 3880.08 274.838C3891.32 253.65 3907.48 237.196 3928.55 225.477C3949.62 213.64 3974.95 207.722 4004.55 207.722C4034.14 207.722 4059.47 213.64 4080.54 225.477C4101.61 237.196 4117.77 253.65 4129.01 274.838C4140.26 295.908 4145.88 320.411 4145.88 348.347C4145.88 376.282 4140.26 400.844 4129.01 422.033C4117.77 443.103 4101.61 459.556 4080.54 471.393C4059.47 483.112 4034.14 488.972 4004.55 488.972ZM4005.26 416.528C4013.54 416.528 4020.7 413.747 4026.74 408.183C4032.78 402.62 4037.45 394.689 4040.77 384.391C4044.08 374.092 4045.74 361.841 4045.74 347.636C4045.74 333.313 4044.08 321.062 4040.77 310.882C4037.45 300.584 4032.78 292.653 4026.74 287.089C4020.7 281.526 4013.54 278.744 4005.26 278.744C3996.5 278.744 3988.98 281.526 3982.71 287.089C3976.43 292.653 3971.64 300.584 3968.33 310.882C3965.01 321.062 3963.35 333.313 3963.35 347.636C3963.35 361.841 3965.01 374.092 3968.33 384.391C3971.64 394.689 3976.43 402.62 3982.71 408.183C3988.98 413.747 3996.5 416.528 4005.26 416.528Z" fill="url(#paint0_linear_1_2)"/>
<path d="M2883.29 728.684V418H2731.98V721.847C2731.98 783.266 2687.83 839.418 2626.74 845.582C2556.47 852.755 2496.95 797.5 2496.95 728.684V418H2345.65V728.684C2345.65 865.981 2449.21 979.629 2582.25 995.544C2614.41 999.355 2641.87 1022.33 2651.29 1053.38C2658.01 1075.46 2660.93 1105.05 2654.09 1143.6C2649.94 1166.58 2676.28 1182.04 2693.88 1166.58C2772.67 1097.42 2871.64 982.207 2883.29 728.571V728.684Z" fill="url(#paint1_linear_1_2)"/>
<path d="M1768.44 997.561H1919.75V686.878C1919.75 622.096 1972.42 569.307 2037.32 569.307C2102.1 569.307 2154.78 621.984 2154.78 686.878V997.561H2306.08V686.878C2306.08 538.597 2185.49 418 2037.32 418C1889.04 418 1768.44 538.597 1768.44 686.878V997.561Z" fill="url(#paint2_linear_1_2)"/>
<path d="M3437.75 1172.85C3281.17 1172.85 3153.85 1045.53 3153.85 889.068C3153.85 732.606 3281.17 605.172 3437.75 605.172C3594.32 605.172 3721.65 732.494 3721.65 889.068C3721.65 952.281 3731.17 1156.15 3685.22 1169.83C3635.23 1184.73 3627.16 1103.14 3570.34 1140.01C3532.79 1164.33 3485.61 1172.85 3437.75 1172.85ZM3437.75 756.479C3364.67 756.479 3305.16 815.881 3305.16 889.068C3305.16 962.256 3364.56 1021.55 3437.75 1021.55C3510.94 1021.55 3570.34 962.144 3570.34 889.068C3570.34 815.993 3510.94 756.479 3437.75 756.479Z" fill="url(#paint3_linear_1_2)"/>
<path d="M4161.33 716.019C4049.81 584.886 3893.01 618.51 3844.48 665.807C3844.48 665.807 3827.56 586.904 3784.86 596.542C3771.74 599.456 3767.71 614.811 3765.13 642.047C3759.75 700.664 3763.23 827.314 3763.23 858.247V1168.93H3914.53V858.247C3914.53 793.466 3978.08 722.968 4060.01 813.08L4161.33 716.131V716.019Z" fill="url(#paint4_linear_1_2)"/>
<path d="M3113.39 418H2962.09V1172.85H3113.39V418Z" fill="url(#paint5_linear_1_2)"/>
<path d="M1919.75 686.878C1919.75 538.597 1799.15 418 1650.87 418C1578.02 418 1511.78 447.141 1463.36 494.438C1463.36 494.438 1446.44 415.534 1403.74 425.173C1390.62 428.087 1386.59 443.442 1384.01 470.677C1378.63 529.295 1382.1 655.944 1382.1 686.878V997.561H1533.41V686.878C1533.41 622.096 1586.09 569.307 1650.87 569.307C1715.65 569.307 1768.44 621.984 1768.44 686.878V997.561H1919.75V686.878Z" fill="url(#paint6_linear_1_2)"/>
<path d="M2505.7 799.965C2485.64 879.653 2440.36 910.923 2440.36 910.923C2737.25 1021.32 2731.54 732.381 2731.54 732.381C2731.54 732.381 2723.47 837.063 2619.12 846.478C2540 853.651 2507.83 777.997 2507.83 777.997L2505.7 799.965Z" fill="url(#paint7_linear_1_2)"/>
<path d="M1929.05 616.044C1908.99 536.356 1863.71 505.085 1863.71 505.085C2160.6 394.687 2154.66 683.516 2154.66 683.516C2154.66 683.516 2146.93 579.058 2042.47 569.531C1963.34 562.358 1931.18 638.011 1931.18 638.011L1929.05 616.044Z" fill="url(#paint8_linear_1_2)"/>
<path d="M1542.49 616.044C1522.43 536.356 1477.15 505.086 1477.15 505.086C1774.04 394.688 1768.33 683.628 1768.33 683.628C1768.33 683.628 1760.26 578.946 1655.91 569.531C1576.78 562.358 1544.62 638.012 1544.62 638.012L1542.49 616.044Z" fill="url(#paint9_linear_1_2)"/>
<path d="M1145.05 709.407C1123.64 709.407 1102.13 702.683 1083.41 688.561L623.883 343.805L168.393 686.095C120.536 722.072 54.0726 710.416 19.8884 659.98C-14.2957 609.545 -3.19991 539.607 44.6579 503.63L562.015 114.827C599.002 87.0314 648.653 87.0314 685.639 114.827L1207.03 505.984C1254.89 541.961 1266.1 611.898 1231.91 662.334C1211.18 693.044 1178.34 709.407 1145.16 709.407H1145.05Z" fill="url(#paint10_linear_1_2)"/>
<path d="M1002.15 276.782C1030.28 295.275 1067.72 275.213 1067.72 241.589L1067.94 131.303C1067.94 69.4356 1017.95 19.1121 956.087 19H955.863C894.107 19 843.896 69.0994 843.784 130.855C843.784 156.745 856.673 180.842 878.304 195.076L1002.15 276.67V276.782Z" fill="url(#paint11_linear_1_2)"/>
<path d="M625.23 1173.42C400.847 1173.42 211.881 1005.63 185.543 783.045C178.258 721.625 222.193 665.81 283.724 658.637C345.144 651.464 400.959 695.287 408.132 756.818C421.133 866.544 514.383 949.258 625.118 949.258C735.852 949.258 829.214 866.544 842.103 756.818C849.388 695.399 905.204 651.464 966.511 658.637C1027.93 665.922 1071.98 721.625 1064.69 783.045C1038.35 1005.52 849.388 1173.42 625.005 1173.42H625.23Z" fill="url(#paint12_linear_1_2)"/>
<path d="M623.771 343.918C623.771 343.918 777.432 212.673 950.37 332.822L786.622 466.196L623.659 343.918H623.771Z" fill="url(#paint13_linear_1_2)"/>
<path d="M427.52 865.535C390.31 1010.57 306.586 1026.48 306.586 1026.48C729.798 1212.76 826.41 816.668 826.41 816.668C826.41 816.668 776.647 946.456 625.34 949.258C474.033 952.06 427.184 823.169 427.184 823.169L427.52 865.535Z" fill="url(#paint14_linear_1_2)"/>
<defs>
<linearGradient id="paint0_linear_1_2" x1="3770" y1="0" x2="3770" y2="605" gradientUnits="userSpaceOnUse">
<stop offset="0.42" stop-color="#3AB8D6"/>
<stop offset="0.925" stop-color="#067EFB"/>
</linearGradient>
<linearGradient id="paint1_linear_1_2" x1="2614.68" y1="549.252" x2="2588.71" y2="1838.43" gradientUnits="userSpaceOnUse">
<stop offset="0.16" stop-color="#3AB8D6"/>
<stop offset="0.67" stop-color="#067EFB"/>
</linearGradient>
<linearGradient id="paint2_linear_1_2" x1="2037.47" y1="518.779" x2="2022.16" y2="1508.81" gradientUnits="userSpaceOnUse">
<stop offset="0.16" stop-color="#3AB8D6"/>
<stop offset="0.67" stop-color="#067EFB"/>
</linearGradient>
<linearGradient id="paint3_linear_1_2" x1="3438.38" y1="703.884" x2="3424.49" y2="1673.65" gradientUnits="userSpaceOnUse">
<stop offset="0.16" stop-color="#3AB8D6"/>
<stop offset="0.67" stop-color="#067EFB"/>
</linearGradient>
<linearGradient id="paint4_linear_1_2" x1="3961.88" y1="695.399" x2="3941.71" y2="1674.39" gradientUnits="userSpaceOnUse">
<stop offset="0.16" stop-color="#3AB8D6"/>
<stop offset="0.67" stop-color="#067EFB"/>
</linearGradient>
<linearGradient id="paint5_linear_1_2" x1="3037.8" y1="549.26" x2="2945.95" y2="1832.47" gradientUnits="userSpaceOnUse">
<stop offset="0.16" stop-color="#3AB8D6"/>
<stop offset="0.67" stop-color="#067EFB"/>
</linearGradient>
<linearGradient id="paint6_linear_1_2" x1="1650.58" y1="518.779" x2="1635.3" y2="1508.81" gradientUnits="userSpaceOnUse">
<stop offset="0.16" stop-color="#3AB8D6"/>
<stop offset="0.67" stop-color="#067EFB"/>
</linearGradient>
<linearGradient id="paint7_linear_1_2" x1="2586.06" y1="767.799" x2="2582.57" y2="1115.79" gradientUnits="userSpaceOnUse">
<stop offset="0.16" stop-color="#3AB8D6"/>
<stop offset="0.67" stop-color="#067EFB"/>
</linearGradient>
<linearGradient id="paint8_linear_1_2" x1="2009.3" y1="515.336" x2="2005.81" y2="863.147" gradientUnits="userSpaceOnUse">
<stop offset="0.16" stop-color="#3AB8D6"/>
<stop offset="0.67" stop-color="#067EFB"/>
</linearGradient>
<linearGradient id="paint9_linear_1_2" x1="1622.85" y1="515.363" x2="1619.36" y2="863.352" gradientUnits="userSpaceOnUse">
<stop offset="0.16" stop-color="#3AB8D6"/>
<stop offset="0.67" stop-color="#067EFB"/>
</linearGradient>
<linearGradient id="paint10_linear_1_2" x1="626.361" y1="200.996" x2="618.943" y2="1252.49" gradientUnits="userSpaceOnUse">
<stop offset="0.16" stop-color="#3AB8D6"/>
<stop offset="0.67" stop-color="#067EFB"/>
</linearGradient>
<linearGradient id="paint11_linear_1_2" x1="955.949" y1="65.0502" x2="948.281" y2="517.418" gradientUnits="userSpaceOnUse">
<stop offset="0.16" stop-color="#3AB8D6"/>
<stop offset="0.67" stop-color="#067EFB"/>
</linearGradient>
<linearGradient id="paint12_linear_1_2" x1="625.454" y1="747.516" x2="618.057" y2="1628.35" gradientUnits="userSpaceOnUse">
<stop offset="0.16" stop-color="#3AB8D6"/>
<stop offset="0.67" stop-color="#067EFB"/>
</linearGradient>
<linearGradient id="paint13_linear_1_2" x1="787.14" y1="314.157" x2="784.598" y2="628.599" gradientUnits="userSpaceOnUse">
<stop offset="0.16" stop-color="#3AB8D6"/>
<stop offset="0.67" stop-color="#067EFB"/>
</linearGradient>
<linearGradient id="paint14_linear_1_2" x1="566.697" y1="861.815" x2="563.518" y2="1305.41" gradientUnits="userSpaceOnUse">
<stop offset="0.16" stop-color="#3AB8D6"/>
<stop offset="0.67" stop-color="#067EFB"/>
</linearGradient>
</defs>
</svg>
