<svg width="994" height="305" viewBox="0 0 994 305" fill="none" xmlns="http://www.w3.org/2000/svg">
<path d="M303.051 224.96C303.051 218.44 308.341 213.15 314.861 213.15H339.931C361.471 213.15 374.501 225.79 374.501 244.36V244.61C374.501 265.64 358.241 276.33 338.001 276.33H322.921V303.42H303.061V224.95H303.051V224.96ZM338.651 258.67C348.581 258.67 354.391 252.74 354.391 244.99V244.74C354.391 235.85 348.201 231.06 338.271 231.06H322.921V258.67H338.661H338.651Z" fill="url(#paint0_linear_2230_161)"/>
<path d="M389.2 224.95C389.2 218.43 394.48 213.16 400.99 213.16H430.46C441.94 213.16 450.72 216.26 456.78 222.32C461.94 227.48 464.51 234.31 464.51 242.96V243.21C464.51 257.78 456.64 266.93 445.16 271.2L467.21 303.44H443.99L424.64 274.55H409.04V303.44H389.18V224.97H389.19L389.2 224.95ZM429.18 257C438.99 257 444.4 251.98 444.4 244.23V243.98C444.4 235.34 438.59 231.09 428.8 231.09H409.06V257.01H429.18V257Z" fill="url(#paint1_linear_2230_161)"/>
<path d="M478.449 258.54V258.29C478.449 232.63 498.689 211.6 526.549 211.6C554.409 211.6 574.399 232.36 574.399 258.02V258.27C574.399 283.93 554.139 304.96 526.299 304.96C498.459 304.96 478.449 284.2 478.449 258.54ZM553.639 258.54V258.29C553.639 242.82 542.289 229.91 526.299 229.91C510.309 229.91 499.209 242.55 499.209 258.02V258.27C499.209 273.74 510.559 286.65 526.549 286.65C542.539 286.65 553.639 274.01 553.639 258.54Z" fill="url(#paint2_linear_2230_161)"/>
<path d="M676.36 123.22V46.1699H638.83V121.53C638.83 136.76 627.88 150.68 612.73 152.22C595.3 154 580.54 140.3 580.54 123.23V46.1799H543.01V123.23C543.01 157.27 568.69 185.46 601.68 189.41C609.66 190.36 616.47 196.05 618.8 203.75C620.47 209.23 621.19 216.56 619.49 226.13C618.46 231.83 625 235.67 629.36 231.83C648.9 214.68 673.44 186.11 676.33 123.21V123.24V123.22H676.36Z" fill="url(#paint3_linear_2230_161)"/>
<path d="M399.881 189.9H437.411V112.85C437.411 96.7799 450.481 83.6999 466.561 83.6999C482.641 83.6999 495.691 96.7699 495.691 112.85V189.9H533.221V112.85C533.221 76.0799 503.311 46.1699 466.571 46.1699C429.831 46.1699 399.891 76.0799 399.891 112.85V189.9H399.881Z" fill="url(#paint4_linear_2230_161)"/>
<path d="M813.859 233.36C775.029 233.36 743.449 201.79 743.449 162.98C743.449 124.17 775.019 92.5703 813.859 92.5703C852.699 92.5703 884.269 124.15 884.269 162.98C884.269 178.66 886.639 229.21 875.229 232.6C862.829 236.3 860.829 216.06 846.739 225.21C837.429 231.24 825.719 233.36 813.859 233.36ZM813.859 130.11C795.739 130.11 780.979 144.84 780.979 162.99C780.979 181.14 795.709 195.84 813.859 195.84C832.009 195.84 846.739 181.11 846.739 162.99C846.739 144.87 832.009 130.11 813.859 130.11Z" fill="url(#paint5_linear_2230_161)"/>
<path d="M993.3 120.08C965.64 87.5598 926.76 95.8899 914.73 107.63C914.73 107.63 910.53 88.0598 899.94 90.4598C896.68 91.1798 895.69 94.9899 895.05 101.75C893.72 116.28 894.58 147.7 894.58 155.36V232.41H932.11V155.36C932.11 139.29 947.87 121.81 968.19 144.16L993.32 120.12V120.09L993.3 120.08Z" fill="url(#paint6_linear_2230_161)"/>
<path d="M733.43 46.1699H695.9V233.37H733.43V46.1699Z" fill="url(#paint7_linear_2230_161)"/>
<path d="M437.41 112.85C437.41 76.0799 407.5 46.1699 370.73 46.1699C352.67 46.1699 336.24 53.3999 324.23 65.1199C324.23 65.1199 320.03 45.5499 309.44 47.9499C306.18 48.6699 305.19 52.4799 304.55 59.2399C303.22 73.7699 304.08 105.19 304.08 112.85V189.9H341.61V112.85C341.61 96.7799 354.68 83.6999 370.74 83.6999C386.8 83.6999 399.89 96.7699 399.89 112.85V189.9H437.42V112.85H437.41Z" fill="url(#paint8_linear_2230_161)"/>
<path d="M582.399 140.87C577.419 160.64 566.189 168.39 566.189 168.39C639.809 195.76 638.399 124.12 638.399 124.12C638.399 124.12 636.399 150.08 610.529 152.41C590.909 154.19 582.929 135.43 582.929 135.43L582.399 140.88V140.87Z" fill="url(#paint9_linear_2230_161)"/>
<path d="M439.409 95.2599C434.429 75.4899 423.199 67.7399 423.199 67.7399C496.819 40.3699 495.359 111.99 495.359 111.99C495.359 111.99 493.439 86.0799 467.539 83.7299C447.919 81.9499 439.939 100.72 439.939 100.72L439.409 95.2699V95.2599Z" fill="url(#paint10_linear_2230_161)"/>
<path d="M343.54 95.2605C338.56 75.4905 327.33 67.7405 327.33 67.7405C400.95 40.3705 399.54 112.01 399.54 112.01C399.54 112.01 397.54 86.0505 371.67 83.7205C352.05 81.9405 344.07 100.71 344.07 100.71L343.54 95.2605Z" fill="url(#paint11_linear_2230_161)"/>
<path d="M196.129 107.65H241.349C249.509 107.65 256.139 114.28 256.139 122.44V299.54H181.439V122.35C181.439 114.25 188.029 107.66 196.129 107.66V107.65Z" fill="url(#paint12_linear_2230_161)"/>
<path d="M215.28 89.3604H222.94C231.1 89.3604 237.73 95.9904 237.73 104.15V108H200.59V104.05C200.59 95.9504 207.18 89.3604 215.28 89.3604Z" fill="url(#paint13_linear_2230_161)"/>
<path d="M206.229 178.87H193.049C189.813 178.87 187.189 181.494 187.189 184.73V199.83C187.189 203.067 189.813 205.69 193.049 205.69H206.229C209.466 205.69 212.089 203.067 212.089 199.83V184.73C212.089 181.494 209.466 178.87 206.229 178.87Z" fill="#00CC7E"/>
<path d="M244.53 255.48H231.35C228.114 255.48 225.49 258.104 225.49 261.341V276.44C225.49 279.677 228.114 282.3 231.35 282.3H244.53C247.767 282.3 250.39 279.677 250.39 276.44V261.341C250.39 258.104 247.767 255.48 244.53 255.48Z" fill="#00CC7E"/>
<path d="M6.57008 234.41H70.5401C73.5701 234.41 76.0201 236.86 76.0201 239.89V299.54H1.33008V239.67C1.33008 236.78 3.69008 234.42 6.58008 234.42L6.57008 234.41Z" fill="url(#paint14_linear_2230_161)"/>
<path opacity="0.5" d="M43.3291 265.06H33.9791C30.7428 265.06 28.1191 267.683 28.1191 270.92V291.76C28.1191 294.996 30.7428 297.62 33.9791 297.62H43.3291C46.5655 297.62 49.1891 294.996 49.1891 291.76V270.92C49.1891 267.683 46.5655 265.06 43.3291 265.06Z" fill="#0086A5"/>
<path d="M41.1909 209.78L74.2709 229.76C78.5409 232.35 76.7009 238.9 71.7209 238.9H5.58086C0.600864 238.9 -1.23914 232.35 3.03086 229.76L36.1109 209.78C37.6809 208.84 39.6309 208.84 41.2009 209.78H41.1809H41.1909Z" fill="url(#paint15_linear_2230_161)"/>
<path d="M105.35 0.730469H150.25C158.54 0.730469 165.27 7.45046 165.27 15.7505V299.53H90.5703V15.5204C90.5703 7.36045 97.2003 0.730469 105.36 0.730469H105.35Z" fill="url(#paint16_linear_2230_161)"/>
<path d="M105.35 0.730469H150.25C158.54 0.730469 165.27 7.45046 165.27 15.7505V299.53H90.5703V15.5204C90.5703 7.36045 97.2003 0.730469 105.36 0.730469H105.35Z" fill="#00DEAE"/>
<path opacity="0.32" d="M115.329 255.48H102.149C98.9127 255.48 96.2891 258.104 96.2891 261.341V276.44C96.2891 279.677 98.9127 282.3 102.149 282.3H115.329C118.565 282.3 121.189 279.677 121.189 276.44V261.341C121.189 258.104 118.565 255.48 115.329 255.48Z" fill="#0086A5"/>
<path opacity="0.32" d="M153.64 178.87H140.46C137.223 178.87 134.6 181.494 134.6 184.73V199.83C134.6 203.067 137.223 205.69 140.46 205.69H153.64C156.876 205.69 159.5 203.067 159.5 199.83V184.73C159.5 181.494 156.876 178.87 153.64 178.87Z" fill="#0086A5"/>
<path opacity="0.32" d="M115.329 98.4199H102.149C98.9127 98.4199 96.2891 101.044 96.2891 104.28V119.38C96.2891 122.616 98.9127 125.24 102.149 125.24H115.329C118.565 125.24 121.189 122.616 121.189 119.38V104.28C121.189 101.044 118.565 98.4199 115.329 98.4199Z" fill="#0086A5"/>
<path opacity="0.32" d="M153.64 17.9697H140.46C137.223 17.9697 134.6 20.5933 134.6 23.8297V38.9297C134.6 42.1661 137.223 44.7897 140.46 44.7897H153.64C156.876 44.7897 159.5 42.1661 159.5 38.9297V23.8297C159.5 20.5933 156.876 17.9697 153.64 17.9697Z" fill="#0086A5"/>
<defs>
<linearGradient id="paint0_linear_2230_161" x1="303.051" y1="258.29" x2="374.501" y2="258.29" gradientUnits="userSpaceOnUse">
<stop offset="1" stop-color="#8CF795"/>
</linearGradient>
<linearGradient id="paint1_linear_2230_161" x1="389.19" y1="258.29" x2="467.22" y2="258.29" gradientUnits="userSpaceOnUse">
<stop offset="1" stop-color="#8CF795"/>
</linearGradient>
<linearGradient id="paint2_linear_2230_161" x1="478.449" y1="258.28" x2="574.399" y2="258.28" gradientUnits="userSpaceOnUse">
<stop offset="1" stop-color="#8CF795"/>
</linearGradient>
<linearGradient id="paint3_linear_2230_161" x1="543.02" y1="139.77" x2="676.36" y2="139.77" gradientUnits="userSpaceOnUse">
<stop offset="0.32" stop-color="#30B1DD"/>
<stop offset="1" stop-color="#8CF795"/>
</linearGradient>
<linearGradient id="paint4_linear_2230_161" x1="399.881" y1="118.03" x2="533.221" y2="118.03" gradientUnits="userSpaceOnUse">
<stop stop-color="#8CF795"/>
<stop offset="0.16" stop-color="#6FE1AB"/>
<stop offset="0.38" stop-color="#4CC6C6"/>
<stop offset="0.57" stop-color="#37B6D6"/>
<stop offset="0.69" stop-color="#30B1DD"/>
</linearGradient>
<linearGradient id="paint5_linear_2230_161" x1="743.449" y1="162.97" x2="884.469" y2="162.97" gradientUnits="userSpaceOnUse">
<stop offset="1" stop-color="#8CF795"/>
</linearGradient>
<linearGradient id="paint6_linear_2230_161" x1="894.31" y1="161.33" x2="993.31" y2="161.33" gradientUnits="userSpaceOnUse">
<stop offset="1" stop-color="#8CF795"/>
</linearGradient>
<linearGradient id="paint7_linear_2230_161" x1="695.9" y1="139.77" x2="733.43" y2="139.77" gradientUnits="userSpaceOnUse">
<stop offset="1" stop-color="#8CF795"/>
</linearGradient>
<linearGradient id="paint8_linear_2230_161" x1="303.8" y1="118.03" x2="437.41" y2="118.03" gradientUnits="userSpaceOnUse">
<stop stop-color="#8CF795"/>
<stop offset="0.14" stop-color="#6FE1AB"/>
<stop offset="0.35" stop-color="#4CC6C6"/>
<stop offset="0.51" stop-color="#37B6D6"/>
<stop offset="0.62" stop-color="#30B1DD"/>
</linearGradient>
<linearGradient id="paint9_linear_2230_161" x1="581.899" y1="140.52" x2="658.979" y2="162.88" gradientUnits="userSpaceOnUse">
<stop offset="0.17" stop-color="#30B1DD" stop-opacity="0"/>
<stop offset="0.35" stop-color="#25657B" stop-opacity="0.25"/>
<stop offset="0.66" stop-color="#1A1A1A" stop-opacity="0.5"/>
</linearGradient>
<linearGradient id="paint10_linear_2230_161" x1="438.869" y1="95.5999" x2="515.909" y2="73.2399" gradientUnits="userSpaceOnUse">
<stop offset="0.17" stop-color="#30B1DD" stop-opacity="0"/>
<stop offset="0.35" stop-color="#25657B" stop-opacity="0.25"/>
<stop offset="0.66" stop-color="#1A1A1A" stop-opacity="0.5"/>
</linearGradient>
<linearGradient id="paint11_linear_2230_161" x1="343.03" y1="95.6105" x2="420.13" y2="73.2505" gradientUnits="userSpaceOnUse">
<stop offset="0.17" stop-color="#30B1DD" stop-opacity="0"/>
<stop offset="0.35" stop-color="#25657B" stop-opacity="0.25"/>
<stop offset="0.66" stop-color="#1A1A1A" stop-opacity="0.5"/>
</linearGradient>
<linearGradient id="paint12_linear_2230_161" x1="181.439" y1="203.59" x2="256.139" y2="203.59" gradientUnits="userSpaceOnUse">
<stop stop-color="#8CF795"/>
</linearGradient>
<linearGradient id="paint13_linear_2230_161" x1="200.59" y1="98.6804" x2="237.73" y2="98.6804" gradientUnits="userSpaceOnUse">
<stop stop-color="#8CF795"/>
</linearGradient>
<linearGradient id="paint14_linear_2230_161" x1="1.33008" y1="266.97" x2="76.0301" y2="266.97" gradientUnits="userSpaceOnUse">
<stop offset="1" stop-color="#8CF795"/>
</linearGradient>
<linearGradient id="paint15_linear_2230_161" x1="0.650863" y1="223.98" x2="76.6509" y2="223.98" gradientUnits="userSpaceOnUse">
<stop offset="1" stop-color="#8CF795"/>
</linearGradient>
<linearGradient id="paint16_linear_2230_161" x1="90.5703" y1="150.13" x2="165.27" y2="150.13" gradientUnits="userSpaceOnUse">
<stop stop-color="#30B1DD"/>
<stop offset="1" stop-color="#8CF795"/>
</linearGradient>
</defs>
</svg>
